<?xml version="1.0" encoding="iso-8859-1"?>
<!-- Generator: Adobe Illustrator 19.0.0, SVG Export Plug-In . SVG Version: 6.00 Build 0)  -->
<svg version="1.1" id="Layer_1" xmlns="http://www.w3.org/2000/svg" xmlns:xlink="http://www.w3.org/1999/xlink" x="0px" y="0px"
	 viewBox="0 0 494.933 494.933" style="enable-background:new 0 0 494.933 494.933;" xml:space="preserve">
<g transform="translate(5 9)">
	<path style="fill:#AAB1BA;" d="M455.8,430.467v51.2H29.133v-51.2c0-17.067,17.067-34.133,34.133-34.133h51.2h256h51.2
		C438.733,396.333,455.8,413.4,455.8,430.467"/>
	<path style="fill:#ECF4F7;" d="M225.4,276.867v-34.133c0-23.893-18.773-42.667-42.667-42.667v119.467
		C206.627,319.533,225.4,300.76,225.4,276.867 M302.2,319.533V200.067c-23.893,0-42.667,18.773-42.667,42.667v34.133
		C259.533,300.76,278.307,319.533,302.2,319.533 M370.467,183v213.333h-256V183c0-70.827,57.173-128,128-128
		S370.467,112.173,370.467,183"/>
	<path style="fill:#FF7474;" d="M302.2,200.067v119.467c-23.893,0-42.667-18.773-42.667-42.667v-34.133
		C259.533,218.84,278.307,200.067,302.2,200.067"/>
	<path style="fill:#80D6FA;" d="M225.4,242.733v34.133c0,23.893-18.773,42.667-42.667,42.667V200.067
		C206.627,200.067,225.4,218.84,225.4,242.733"/>
</g>
<path style="fill:#51565F;" d="M460.8,494.933H34.133c-2.56,0-4.267-1.707-4.267-4.267v-51.2c0-19.627,18.773-38.4,38.4-38.4H115.2
	V192c0-72.533,59.733-132.267,132.267-132.267S379.733,119.467,379.733,192v179.2c0,2.56-1.707,4.267-4.267,4.267
	s-4.267-1.707-4.267-4.267V192c0-68.267-55.467-123.733-123.733-123.733S123.733,123.733,123.733,192v213.333
	c0,2.56-1.707,4.267-4.267,4.267h-51.2c-14.507,0-29.867,15.36-29.867,29.867V486.4h418.133v-46.933
	c0-14.507-15.36-29.867-29.867-29.867H154.453c-2.56,0-4.267-1.707-4.267-4.267c0-2.56,1.707-4.267,4.267-4.267h272.213
	c19.627,0,38.4,18.773,38.4,38.4v51.2C465.067,493.227,463.36,494.933,460.8,494.933z M247.467,384c-2.56,0-4.267-1.707-4.267-4.267
	v-51.2c0-2.56,1.707-4.267,4.267-4.267s4.267,1.707,4.267,4.267v51.2C251.733,382.293,250.027,384,247.467,384z M307.2,332.8
	c-25.6,0-46.933-21.333-46.933-46.933v-34.133c0-25.6,21.333-46.933,46.933-46.933c2.56,0,4.267,1.707,4.267,4.267v119.467
	C311.467,331.093,309.76,332.8,307.2,332.8z M302.933,213.333c-18.773,1.707-34.133,18.773-34.133,38.4v34.133
	c0,19.627,15.36,35.84,34.133,38.4V213.333z M187.733,332.8c-2.56,0-4.267-1.707-4.267-4.267V209.067
	c0-2.56,1.707-4.267,4.267-4.267c25.6,0,46.933,21.333,46.933,46.933v34.133C234.667,311.467,213.333,332.8,187.733,332.8z
	 M192,213.333v110.08c18.773-2.56,34.133-18.773,34.133-38.4V250.88C226.133,232.107,210.773,215.893,192,213.333z M320,179.2
	c-1.707,0-3.413-0.853-4.267-2.56c-6.827-20.48-23.893-37.547-44.373-44.373c-2.56-0.853-3.413-3.413-2.56-5.12
	c0.853-2.56,3.413-3.413,5.12-2.56c23.04,7.68,41.813,26.453,49.493,49.493c0.853,2.56,0,4.267-2.56,5.12H320z M388.267,123.733
	c-1.707,0-2.56-0.853-3.413-2.56c0-0.853-0.853-1.707-0.853-2.56c0-1.707,0.853-2.56,2.56-3.413l29.867-17.067
	c1.707-0.853,4.267-0.853,5.973,1.707c0,0.853,0.853,1.707,0.853,2.56c0,1.707-0.853,2.56-2.56,3.413l-29.867,17.067
	C389.12,123.733,388.267,123.733,388.267,123.733z M106.667,115.2c-0.853,0-1.707,0-1.707-0.853L75.093,97.28
	c-1.707-0.853-2.56-2.56-2.56-3.413s0-1.707,0.853-2.56C74.24,89.6,76.8,88.747,79.36,89.6l29.867,17.067
	c1.707,0.853,2.56,2.56,2.56,3.413s0,1.707-0.853,2.56C110.08,114.347,108.373,115.2,106.667,115.2z M328.533,64
	c-0.853,0-1.707,0-2.56-0.853c-1.707-0.853-2.56-2.56-2.56-3.413s0-1.707,0.853-2.56l17.067-29.867
	c0.853-1.707,3.413-2.56,5.973-1.707c1.707,0.853,2.56,2.56,2.56,3.413s0,1.707-0.853,2.56L331.947,61.44
	C331.093,64,330.24,64,328.533,64z M166.4,55.467c-1.707,0-2.56-0.853-3.413-2.56L145.92,23.04c0-0.853-0.853-1.707-0.853-2.56
	c0-1.707,0.853-2.56,2.56-3.413c1.707-0.853,4.267-0.853,5.973,1.707l17.067,29.867c0,0.853,0.853,1.707,0.853,2.56
	c0,1.707-0.853,2.56-2.56,3.413C168.107,55.467,167.253,55.467,166.4,55.467z M247.467,42.667c-2.56,0-4.267-1.707-4.267-4.267
	V4.267c0-2.56,1.707-4.267,4.267-4.267s4.267,1.707,4.267,4.267V38.4C251.733,40.96,250.027,42.667,247.467,42.667z"/>
<g>
</g>
<g>
</g>
<g>
</g>
<g>
</g>
<g>
</g>
<g>
</g>
<g>
</g>
<g>
</g>
<g>
</g>
<g>
</g>
<g>
</g>
<g>
</g>
<g>
</g>
<g>
</g>
<g>
</g>
</svg>
